<svg version="1.1" xmlns="http://www.w3.org/2000/svg" xmlns:xlink="http://www.w3.org/1999/xlink" width="92" height="52.287" viewBox="0,0,92,52.287"><defs><linearGradient x1="181.01808" y1="176.9307" x2="273.01769" y2="176.9307" gradientUnits="userSpaceOnUse" id="color-1"><stop offset="0" stop-color="#27aae1"/><stop offset="1" stop-color="#115489"/></linearGradient><linearGradient x1="184.46992" y1="176.9307" x2="269.5647" y2="176.9307" gradientUnits="userSpaceOnUse" id="color-2"><stop offset="0" stop-color="#2f7eba"/><stop offset="0.506" stop-color="#3f9dd6"/><stop offset="1" stop-color="#3e97d1"/></linearGradient></defs><g transform="translate(-181.018,-150.787)"><g data-paper-data="{&quot;isPaintingLayer&quot;:true}" fill-rule="nonzero" stroke="none" stroke-width="1" stroke-linecap="butt" stroke-linejoin="miter" stroke-miterlimit="10" stroke-dasharray="" stroke-dashoffset="0" style="mix-blend-mode: normal"><path d="M273.018,176.93c0,14.416 -8.99223,26.144 -20.04373,26.144h-51.9133c-11.0515,0 -20.04297,-11.727 -20.04297,-26.144c0,-14.415 8.9907,-26.143 20.04297,-26.143h51.9133c11.0515,0 20.04373,11.728 20.04373,26.143z" fill="url(#color-1)"/><path d="M269.56493,176.93c0,11.952 -7.42747,21.641 -16.59067,21.641h-51.9133c-9.1632,0 -16.59143,-9.689 -16.59143,-21.641v0c0,-11.951 7.42823,-21.64 16.59143,-21.64h51.9133c9.1632,0 16.59067,9.689 16.59067,21.64z" fill="url(#color-2)"/><text transform="translate(208.93579,181.24138) scale(0.39053,0.39053)" font-size="40" xml:space="preserve" fill="#000000" fill-rule="nonzero" stroke="none" stroke-width="1" stroke-linecap="butt" stroke-linejoin="miter" stroke-miterlimit="10" stroke-dasharray="" stroke-dashoffset="0" font-family="Sans Serif" font-weight="normal" text-anchor="start" style="mix-blend-mode: normal"><tspan x="0" dy="0">back</tspan></text></g></g></svg>
