<svg version="1.1" xmlns="http://www.w3.org/2000/svg" xmlns:xlink="http://www.w3.org/1999/xlink" width="192.03538" height="105.25811" viewBox="0,0,192.03538,105.25811"><g transform="translate(-54.06378,-100.21464)"><g data-paper-data="{&quot;isPaintingLayer&quot;:true}" fill-rule="nonzero" stroke-linecap="butt" stroke-linejoin="miter" stroke-miterlimit="10" stroke-dasharray="" stroke-dashoffset="0" style="mix-blend-mode: normal"><path d="M65.62386,106.29471c0,2.73935 -2.36395,4.96004 -5.28004,4.96004c-2.91609,0 -5.28004,-2.22068 -5.28004,-4.96004c0,-2.73935 2.36395,-4.96004 5.28004,-4.96004c2.91609,0 5.28004,2.22068 5.28004,4.96004z" fill="none" stroke="#35ff00" stroke-width="2"/><path d="M85.02398,106.49468c0,2.73936 -2.36395,4.96004 -5.28004,4.96004c-2.91608,0 -5.28004,-2.22068 -5.28004,-4.96004c0,-2.73936 2.36395,-4.96004 5.28004,-4.96004c2.91608,0 5.28004,2.22068 5.28004,4.96004z" fill="none" stroke="#35ff00" stroke-width="2"/><path d="M105.7041,106.46073c0,2.73936 -2.36396,4.96003 -5.28004,4.96003c-2.91608,0 -5.28004,-2.22068 -5.28004,-4.96003c0,-2.73936 2.36396,-4.96004 5.28004,-4.96004c2.91608,0 5.28004,2.22069 5.28004,4.96004z" fill="none" stroke="#35ff00" stroke-width="2"/><path d="M125.9843,106.81468c0,2.73936 -2.36395,4.96004 -5.28004,4.96004c-2.91608,0 -5.28004,-2.22068 -5.28004,-4.96004c0,-2.73936 2.36395,-4.96004 5.28004,-4.96004c2.91608,0 5.28004,2.22068 5.28004,4.96004z" fill="none" stroke="#35ff00" stroke-width="2"/><path d="M166.06453,106.57461c0,2.73936 -2.36396,4.96003 -5.28004,4.96003c-2.91609,0 -5.28004,-2.22068 -5.28004,-4.96003c0,-2.73936 2.36396,-4.96004 5.28004,-4.96004c2.91609,0 5.28004,2.22069 5.28004,4.96004z" fill="none" stroke="#35ff00" stroke-width="2"/><path d="M145.38441,106.69464c0,2.73936 -2.36396,4.96004 -5.28004,4.96004c-2.91609,0 -5.28004,-2.22068 -5.28004,-4.96004c0,-2.73936 2.36396,-4.96004 5.28004,-4.96004c2.91609,0 5.28004,2.22068 5.28004,4.96004z" fill="none" stroke="#35ff00" stroke-width="2"/><path d="M185.46464,106.45457c0,2.73936 -2.36396,4.96003 -5.28004,4.96003c-2.91609,0 -5.28004,-2.22068 -5.28004,-4.96003c0,-2.73936 2.36395,-4.96004 5.28004,-4.96004c2.91609,0 5.28004,2.22069 5.28004,4.96004z" fill="none" stroke="#35ff00" stroke-width="2"/><path d="M205.66492,106.17468c0,2.73936 -2.36396,4.96004 -5.28004,4.96004c-2.91609,0 -5.28004,-2.22068 -5.28004,-4.96004c0,-2.73936 2.36396,-4.96004 5.28004,-4.96004c2.91609,0 5.28004,2.22068 5.28004,4.96004z" fill="none" stroke="#35ff00" stroke-width="2"/><path d="M225.38503,106.37464c0,2.73936 -2.36396,4.96004 -5.28004,4.96004c-2.91609,0 -5.28004,-2.22068 -5.28004,-4.96004c0,-2.73936 2.36395,-4.96004 5.28004,-4.96004c2.91609,0 5.28004,2.22068 5.28004,4.96004z" fill="none" stroke="#35ff00" stroke-width="2"/><text transform="translate(240.02522,120.60498) scale(0.2491,0.16618)" font-size="40" xml:space="preserve" fill="#000000" fill-rule="nonzero" stroke="none" stroke-width="1" stroke-linecap="butt" stroke-linejoin="miter" stroke-miterlimit="10" stroke-dasharray="" stroke-dashoffset="0" font-family="Sans Serif" font-weight="normal" text-anchor="start" style="mix-blend-mode: normal"><tspan x="0" dy="0"> </tspan><tspan x="0" dy="46.15px">9</tspan><tspan x="0" dy="46.15px">8</tspan><tspan x="0" dy="46.15px">7</tspan><tspan x="0" dy="46.15px">6</tspan><tspan x="0" dy="46.15px">5</tspan><tspan x="0" dy="46.15px">4</tspan><tspan x="0" dy="46.15px">3</tspan><tspan x="0" dy="46.15px">2</tspan><tspan x="0" dy="46.15px">1</tspan><tspan x="0" dy="46.15px">0</tspan></text></g></g></svg>
