<svg version="1.1" xmlns="http://www.w3.org/2000/svg" xmlns:xlink="http://www.w3.org/1999/xlink" width="39.85702" height="24.32353" viewBox="0,0,39.85702,24.32353"><g transform="translate(-240.80305,-156.42826)"><g data-paper-data="{&quot;isPaintingLayer&quot;:true}" fill-rule="nonzero" stroke-linecap="round" stroke-linejoin="miter" stroke-miterlimit="10" stroke-dasharray="" stroke-dashoffset="0" style="mix-blend-mode: normal"><path d="M279.65921,161.07286c-0.05327,0.52429 -0.84117,0.6803 -1.31751,0.94654c-0.95203,0.532 -1.86601,1.61077 -3.05291,1.485c-0.70739,-0.09602 -0.40023,-1.35027 -0.80035,-1.93621c-0.54566,-0.80022 -1.82395,-1.32418 -1.91777,-2.22804c-0.0669,-0.70786 1.12117,-0.99195 1.66767,-1.39127c0.68053,-0.50154 1.34641,-1.36445 2.1956,-1.31983c0.93576,0.05043 1.84307,0.79612 2.37106,1.51606c0.61998,0.846 0.9522,1.96491 0.85422,2.92775z" fill="#ff9400" stroke="none" stroke-width="1"/><path d="M276.35929,162.73535c-0.19958,0.83828 -1.18355,1.38396 -2.01783,1.83601c-0.53585,0.33243 -1.34048,0.81829 -1.95472,0.43848c-0.79748,-0.49517 -0.73142,-1.6375 -1.13285,-2.43987c-0.2459,-0.49222 -0.55571,-0.91997 -0.85879,-1.34485c-0.15875,-0.30552 -0.77728,-0.62405 -0.52715,-0.84469c1.00972,-0.89849 2.25309,-1.87729 3.63624,-1.96849c0.84784,-0.05511 1.6286,0.84948 2.06635,1.51165c0.55201,0.83455 1.0091,1.89106 0.78875,2.81174z" fill="#b5b5b5" stroke="none" stroke-width="1"/><path d="M249.47726,178.57116c-0.38398,0.3915 -1.10321,0.38641 -1.65305,0.47931c-1.91115,0.32373 -3.8516,0.66207 -5.80875,0.76051c-0.49069,0.02414 -0.18182,-0.30723 -0.10928,-0.43661c0.25859,-0.45853 0.64302,-0.75352 0.95428,-1.13631c0.46509,-0.57007 0.83926,-1.16031 1.24287,-1.72998c0.73542,-0.89203 0.9873,-2.51429 2.17636,-2.6582c1.66569,-0.20172 3.8908,0.48242 4.78444,1.84268c0.64184,0.95469 -0.82046,2.07737 -1.58687,2.87858z" fill="#ffffcc" stroke="none" stroke-width="1"/><path d="M257.16841,174.26904c-2.5189,1.45576 -4.89038,3.17754 -7.5403,4.32255c-0.65893,0.28821 -0.1747,-0.62657 -0.28705,-0.9528c-0.07633,-0.22771 0.03832,-0.54909 -0.157,-0.72428c-0.23271,-0.18644 -0.52761,-0.09925 -0.75419,-0.10207c-0.48294,-0.04737 -1.04665,0.19356 -1.37138,-0.04499c-0.25849,-0.19163 -0.0416,-0.6153 0.01463,-0.91197c0.05316,-0.28134 0.33435,-0.51297 0.30938,-0.80178c-0.0265,-0.30421 -0.27071,-0.57151 -0.45174,-0.83448c-0.1768,-0.25649 -0.65608,-0.42625 -0.61643,-0.71615c0.04467,-0.29738 0.32149,-0.21887 0.89194,-0.51202c2.1334,-1.2481 4.2995,-2.44706 6.48367,-3.69222c5.19344,-2.96077 10.3548,-6.02262 15.56774,-8.93069c1.3406,-0.71845 0.88101,-0.55568 1.34445,-0.45078c0.76096,0.18736 1.44202,0.71541 1.93932,1.24672c0.52608,0.54927 0.88746,1.21684 1.03354,1.89746c0.1379,0.60921 0.10574,1.23759 -0.17316,1.73415c-0.18963,0.36803 0.20334,-0.03997 -1.06356,0.6997c-5.06805,2.94511 -10.12629,5.8685 -15.16987,8.77362z" fill="#ffff00" stroke="#000000" stroke-width="2"/><path d="M247.2578,176.30228l21.94136,-12.28628" fill="none" stroke="#000000" stroke-width="2"/><path d="M249.14788,178.80778c0,0 -0.93008,0.16828 -1.39909,0.23247c-0.30566,0.04187 -0.61952,0.04664 -0.9258,0.08561c-0.6736,0.08601 -1.34579,0.18851 -2.01629,0.28954c-0.31166,0.04696 -0.61994,0.11209 -0.93272,0.15497c-0.46187,0.0632 -0.92725,0.11551 -1.39216,0.1631c-0.12695,0.01291 -0.38402,0.01833 -0.38402,0.01833" fill="none" stroke="#000000" stroke-width="2"/><path d="M246.32125,173.4337c0,0 -0.29692,0.37995 -0.43944,0.57326c-0.32849,0.44513 -0.67014,0.88427 -0.97505,1.3444c-0.26498,0.40002 -0.46073,0.84175 -0.73495,1.2363c-0.38102,0.54854 -0.81876,1.06213 -1.22902,1.59125c-0.11545,0.14888 -0.22499,0.30278 -0.35015,0.44473c-0.13342,0.15123 -0.29215,0.2833 -0.42557,0.43453c-0.12517,0.14195 -0.25083,0.2858 -0.35017,0.44473c-0.02475,0.03967 -0.01385,0.13873 -0.01385,0.13873" fill="none" stroke="#000000" stroke-width="2"/><path d="M241.9402,179.64613l0.08218,0.09549" fill="none" stroke="#000000" stroke-width="2"/><path d="M270.1496,159.85612c0,0 1.15155,-0.6501 1.70154,-0.96487c0.39367,-0.21303 0.7372,-0.44437 1.13204,-0.62012c0.10192,-0.04694 -0.08552,-0.00707 0.06849,0.07958c0.61669,0.34611 1.34342,0.53951 1.80927,1.0182c0.66099,0.59142 1.17352,1.33148 1.47219,2.09744c0.21451,0.55238 0.20265,1.14582 0.13544,1.70562c-0.02017,0.17134 -0.15213,0.20073 -0.3363,0.306c-0.82712,0.4845 -2.5042,1.34836 -2.5042,1.34836" fill="none" stroke="#000000" stroke-width="2"/><path d="M272.96718,158.40734c0,0 1.22183,-0.8393 1.89089,-1.20935c0.36182,-0.21687 0.77679,-0.38863 1.19728,-0.5484c0.19469,-0.07402 0.42123,-0.21858 0.62376,-0.1228c0.61897,0.19922 1.24762,0.47879 1.69095,0.95411c0.59893,0.64793 1.00511,1.45061 1.30422,2.2486c0.18473,0.49328 0.14338,1.01373 0.04326,1.50073c-0.03704,0.21937 -0.2802,0.30159 -0.4927,0.42173c-0.82336,0.54868 -2.67212,1.45885 -2.67212,1.45885" fill="none" stroke="#000000" stroke-width="2.10527"/><path d="M272.11817,159.27893c0,0 0.48949,0.2451 0.72648,0.37953c0.19677,0.11156 0.40683,0.21254 0.57564,0.35912c0.18712,0.16227 0.32693,0.36651 0.47944,0.557c0.14191,0.17725 0.27776,0.35987 0.40402,0.54681c0.11774,0.17426 0.24445,0.34748 0.32861,0.5366c0.08366,0.18792 0.11388,0.39054 0.17084,0.58555c0.01408,0.04887 0,0 0,0" fill="none" stroke="#000000" stroke-width="2"/><path d="M244.5743,178.68091c-0.00039,0.2702 0.01642,0.60711 -0.15854,0.82219c-0.13184,0.1568 -0.41043,0.12359 -0.62413,0.12645c-0.57937,-0.00024 -1.57333,0.1892 -1.74155,-0.1654c-0.16526,-0.38429 0.8113,-1.06707 1.22901,-1.59124c0.10416,-0.13072 0.08748,-0.20864 0.17438,-0.21543c0.15967,-0.03744 0.32623,0.03065 0.44835,0.10286c0.18243,0.1082 0.3627,0.23187 0.48943,0.39891c0.11426,0.15101 0.18425,0.34102 0.18302,0.52167z" fill="#000000" stroke="none" stroke-width="1"/></g></g></svg>
